<svg width="129" height="28" viewBox="0 0 129 28" fill="none" xmlns="http://www.w3.org/2000/svg">
<path d="M51.6253 15.0468C52.9885 14.4647 53.6344 12.9476 53.6344 11.4942C53.6569 8.2759 50.0818 7.29199 47.2878 7.29199H37.9971V22.4637H46.8898C49.8828 22.4637 53.7734 21.66 53.8147 18.2389C53.8372 16.5189 52.8308 15.5801 51.6253 15.0431M47.3592 19.8499H42.1092V16.0946H47.3141C48.6323 16.0946 49.7514 16.5415 49.7514 17.9272C49.7514 19.0237 48.9477 19.8499 47.3592 19.8499ZM47.3141 13.9728H42.1092V10.2625H47.0475C48.4332 10.2625 49.7514 10.6418 49.7514 12.0951C49.7514 13.4583 48.6773 13.9728 47.3141 13.9728Z" fill="white"/>
<path d="M57.957 9.41369H59.6957V5.72217H55.561V7.01777C55.561 8.33965 56.6351 9.41369 57.957 9.41369Z" fill="white"/>
<path d="M55.561 22.4637H59.6919V9.44385L55.561 11.2915V22.4637Z" fill="white"/>
<path d="M73.2787 9.57129C70.4622 9.57129 67.7583 10.9345 66.4627 12.4103V9.75154H62.3506V27.1802H66.4627V19.0461C67.7583 20.5219 70.7964 21.9302 73.2787 21.9302C77.6349 21.9302 81.0974 19.6732 81.0974 15.8315C81.0974 12.4592 77.6349 9.57504 73.2787 9.57504M72.092 19.6695C68.6746 19.6695 66.4627 17.3224 66.4627 15.67C66.4627 14.0176 68.7647 11.7832 72.0282 11.7832C74.8221 11.7832 76.9665 13.3041 76.9665 15.8728C76.9665 18.1298 75.1113 19.6695 72.0958 19.6695" fill="white"/>
<path d="M86.9517 5.69971H82.8396V22.4636H86.9517V5.69971Z" fill="white"/>
<path d="M97.6323 9.8833C93.0057 9.8833 89.0513 12.4069 89.0513 16.3425C89.0513 20.2781 92.893 22.7567 97.5196 22.7567C100.914 22.7567 103.776 21.4836 104.895 19.4933L101.677 18.9563C100.648 20.0716 99.0856 20.6537 97.4746 20.6537C95.15 20.6537 93.5427 19.2229 93.4751 17.5029C94.9059 17.5029 104.467 17.4579 105.718 17.4579C105.808 17.1236 105.853 16.7444 105.853 16.3838C105.83 11.96 101.876 9.8833 97.6285 9.8833M93.4112 15.8956C93.3887 14.0405 94.8646 12.1177 97.4783 12.1177C99.8479 12.1177 101.5 13.6612 101.5 15.8731L93.4112 15.8956Z" fill="white"/>
<path d="M110.525 13.8824C110.525 12.4741 112.447 12.1624 114.971 12.1624C117.093 12.1624 118.97 12.3877 118.97 13.995H122.992C122.992 10.5101 118.948 9.59375 114.971 9.59375C109.965 9.59375 106.3 11.0245 106.3 13.6608C106.3 19.538 119.192 15.6512 119.192 18.6892C119.192 19.6957 117.382 20.2102 114.836 20.2102C112.868 20.2102 110.724 20.075 110.724 18.5127H106.458C106.458 20.0299 107.464 22.7338 114.948 22.7338C118.97 22.7338 123.083 21.3931 123.083 18.6892C123.083 13.1689 110.525 16.6989 110.525 13.8861" fill="white"/>
<path d="M126.537 20.0903C125.625 20.0903 124.994 20.4922 124.994 21.078C124.994 21.6638 125.628 22.0619 126.537 22.0619C127.446 22.0619 128.073 21.6826 128.073 21.078C128.073 20.4734 127.442 20.0903 126.537 20.0903ZM126.541 21.8028C125.782 21.8028 125.253 21.5061 125.253 21.078C125.253 20.6499 125.779 20.357 126.541 20.357C127.303 20.357 127.829 20.6574 127.829 21.078C127.829 21.4986 127.292 21.8028 126.541 21.8028Z" fill="white"/>
<path d="M126.86 21.153C127.07 21.1493 127.273 21.0742 127.273 20.8902C127.273 20.6874 127.01 20.6235 126.736 20.6235H125.835V21.5211H126.184V21.153H126.41L126.871 21.5211H127.281L126.796 21.1493H126.864L126.86 21.153ZM126.184 21.0404V20.8075H126.732C126.826 20.8075 126.924 20.8413 126.928 20.9165C126.932 20.9878 126.838 21.0404 126.729 21.0404H126.184Z" fill="white"/>
<path d="M24.2717 9.44474L13.261 9.45225L11.8677 14.2478H22.8109L19.9718 23.963L11.1805 24.0005C9.50938 24.008 8.2964 22.4045 8.76206 20.7972L14.7819 0H6.00938L0.263672 19.6856C-0.94931 23.8466 2.17515 28.0075 6.5126 28L27.3999 27.9662L30.438 17.6915C31.6548 13.5719 28.5678 9.44098 24.2717 9.44474Z" fill="#53FAFB"/>
<path d="M14.8344 18.9948H13.8843L14.5302 16.8354H16.6895L16.3891 17.8381C16.1826 18.5254 15.5517 18.9948 14.8344 18.9948Z" fill="white"/>
<path d="M18.4471 18.9948H17.4106L18.0566 16.8354H20.2159L19.8892 17.9207C19.6977 18.5592 19.1118 18.9948 18.4434 18.9948" fill="white"/>
</svg>
